<svg width="576" height="448" viewBox="0 0 576 448" fill="none" xmlns="http://www.w3.org/2000/svg">
<path d="M26.9022 0.733602C16.0873 3.55338 6.0659 14.1404 2.12198 27.1203C-0.129165 34.8802 -0.129165 35.587 0.094186 226.338L0.429213 417.796L3.46797 424.989C5.15486 428.943 8.87542 434.869 11.6908 437.969C21.8298 449.115 -3.17968 448.129 289.904 447.849L552.348 447.429L558.543 443.056C565.749 437.976 572.285 427.956 574.536 418.65C575.665 413.43 576 376.744 576 223.099C576 40.1074 575.888 33.7537 573.861 26.9877C571.045 17.8143 563.275 7.66157 555.951 3.56811L550.097 0.181426L290.469 0.0415483C147.653 -0.113061 29.0417 0.174063 26.9022 0.733602ZM210.503 49.5534C216.363 50.6798 225.033 52.94 229.652 54.4935C240.579 58.2998 262.991 71.9864 272.565 80.7329L280.001 87.6461L273.353 96.8196C260.628 114.173 248.008 140.839 241.925 162.705L239.897 170.185H245.869C251.5 170.185 251.952 169.906 252.74 166.232C255.555 151.978 269.638 122.632 281.687 106.126L288.67 96.3926L295.882 106.126C307.485 121.925 317.506 142.385 325.17 166.232C326.411 169.758 326.975 170.185 332.153 170.185C335.192 170.185 337.784 169.906 337.784 169.479C337.784 167.925 330.69 146.766 327.533 138.719C322.69 126.725 312.216 107.819 304.105 96.6724L297.346 87.359L302.865 82.279C342.962 44.7457 397.366 37.2729 444.564 62.6657C466.076 74.3792 489.957 98.5056 503.246 122.205C515.19 143.379 524.876 172.438 528.256 196.992C530.06 210.251 530.172 241.011 528.367 254.271C518.458 328.623 474.528 386.05 415.169 401.709C400.411 405.663 374.508 405.943 360.877 402.416C340.605 397.056 319.54 385.77 304.669 372.223L297.463 365.59L302.53 358.536C316.272 339.35 326.746 318.75 333.052 298.57C338.795 280.51 338.795 281.637 332.153 281.637C327.763 281.637 326.293 282.204 325.735 284.037C323.143 294.057 316.724 310.416 311.658 320.576C304.563 334.682 291.156 355.003 288.794 355.003C287.894 355.003 284.174 350.629 280.571 345.409C269.08 328.616 261.986 314.37 255.45 295.036L251.171 282.336L245.428 281.916C238.669 281.35 238.669 280.223 245.093 299.976C251.512 319.869 260.299 337.222 273.365 355.989C276.633 360.782 279.107 365.442 278.66 366.149C277.085 369.536 257.037 384.776 247.121 390.276C225.497 402.129 199.812 407.349 177.847 404.522C149.352 400.715 124.454 388.582 102.718 367.415C92.9202 358.102 76.3628 335.102 69.8269 321.982C41.5553 264.983 40.5384 194.297 67.2348 136.591C96.1765 73.8196 154.183 38.6865 210.503 49.5534Z" fill="#737373"/>
<path d="M103.947 222.672L97.1875 268.245L104.394 268.664C108.449 268.944 112.164 268.524 112.616 267.958C113.069 267.391 115.655 252.438 118.247 234.798C120.951 217.305 123.431 203.051 123.878 203.338C124.213 203.758 124.889 214.904 125.342 228.311C125.794 241.718 126.352 256.384 126.805 260.904L127.481 269.084L135.363 268.664L143.245 268.245L155.182 234.098C161.601 215.331 167.12 200.099 167.238 200.239C167.461 200.379 165.321 215.192 162.618 232.972C159.802 250.892 157.551 266.272 157.551 267.258C157.551 268.672 159.691 268.951 166.227 268.672L175.014 268.252L181.32 227.332C184.812 204.759 187.968 184.299 188.303 181.759L188.979 177.246H174.561H160.143L150.568 204.759C143.133 226.206 140.77 231.705 140.206 229.165C139.865 227.332 139.53 216.892 139.53 206.025C139.53 195.019 139.195 184.012 138.854 181.619L138.178 177.246H124.436H110.806L103.947 222.672Z" fill="#737373"/>
<path d="M359.185 177.945C359.185 178.225 356.934 194.172 354.118 213.358C348.035 255.125 347.812 259.211 352.202 264.718C356.258 269.798 361.665 271.064 369.776 268.951C374.396 267.825 376.083 266.691 376.083 264.998C376.083 263.724 376.418 260.197 376.759 257.238C377.435 252.158 377.435 252.018 374.055 252.018C366.056 252.018 365.944 251.451 369.436 228.458L371.804 212.659L376.424 212.239L381.156 211.819L382.396 202.933L383.636 194.187H379.345C374.502 194.187 374.05 192.913 375.966 182.473L376.977 177.253H368.078C363.24 177.238 359.185 177.518 359.185 177.945Z" fill="#737373"/>
<path d="M202.057 194.592L195.409 196.285L194.057 204.465C192.817 212.644 192.817 212.791 195.186 211.945C196.426 211.378 201.834 210.678 207.123 210.251C219.061 209.265 222.893 210.678 222.893 216.458V220.551L213.095 221.258C196.649 222.524 187.298 229.298 184.483 242.425C182.343 252.585 185.27 262.885 191.465 266.971C196.42 270.078 207.012 269.511 213.089 265.557L218.385 262.311V265.557C218.385 268.804 218.72 268.944 225.709 268.944C229.764 268.944 233.032 268.804 233.032 268.517C233.032 268.377 234.607 257.37 236.412 244.251C238.216 230.991 239.792 217.724 239.792 214.625C239.792 206.585 236.635 199.812 231.457 196.425C226.044 193.038 211.967 192.052 202.057 194.592ZM220.078 238.898C218.726 246.091 215.57 251.171 211.291 253.284C207.576 254.978 206.9 254.978 204.308 252.865C201.828 250.892 201.381 249.478 201.716 245.245C201.939 240.871 202.727 239.598 205.995 237.625C208.134 236.211 212.413 235.085 215.458 235.085C220.865 235.085 220.865 235.085 220.078 238.898Z" fill="#737373"/>
<path d="M264.231 194.732C247.11 202.491 238.211 233.391 247.11 254.978C251.165 264.711 260.74 269.651 275.27 269.371C290.704 269.091 291.827 268.385 293.402 258.224C294.19 253.711 294.642 249.758 294.531 249.478C294.307 249.338 292.838 249.758 291.151 250.465C289.576 251.311 285.068 252.298 281.241 252.865C269.074 254.418 261.193 249.758 261.193 241.151C261.193 237.904 261.193 237.904 278.538 237.904C290.028 237.904 296.223 237.337 296.788 236.351C297.916 233.951 298.704 217.584 297.916 211.945C296.905 205.459 292.285 198.685 286.537 195.438C281.13 192.339 270.426 192.052 264.231 194.732ZM280.565 212.085C281.694 213.351 282.593 216.178 282.593 218.431V222.385H273.018C262.203 222.385 261.416 221.398 266.371 214.058C268.734 210.531 270.085 209.685 273.918 209.685C276.621 209.692 279.325 210.678 280.565 212.085Z" fill="#737373"/>
<path d="M318.635 194.871C313.004 197.132 307.82 202.491 306.133 207.851C305.569 209.684 305.122 214.338 305.122 218.151C305.122 227.038 308.725 232.397 318.752 238.471C324.612 241.998 326.076 243.551 326.299 246.658C326.863 252.305 323.484 253.991 313.121 253.005C308.39 252.578 303.435 251.871 302.195 251.311C299.944 250.465 299.72 251.031 298.927 258.504C298.363 264.571 298.586 266.831 299.715 267.818C300.502 268.524 307.826 268.804 315.819 268.664C327.986 268.245 331.248 267.818 334.969 265.278C343.644 259.778 347.136 243.411 341.728 233.251C340.6 230.991 336.432 227.465 331.477 224.505C324.383 220.272 323.143 219.005 323.143 216.038C323.143 211.098 327.31 209.405 337.226 209.972L344.996 210.391L346.348 202.352L347.588 194.452L344.208 193.605C338.348 192.192 323.931 192.898 318.635 194.871Z" fill="#737373"/>
<path d="M441.413 195.159C434.542 198.258 425.42 209.832 423.051 218.718C421.922 222.812 421.135 230.145 421.135 236.071C421.135 251.871 424.738 260.338 434.089 266.544C437.804 269.084 440.619 269.651 449.295 269.651C458.758 269.651 460.668 269.231 466.416 265.697C478.242 258.357 483.65 246.084 483.65 225.771C483.65 215.611 483.315 213.638 480.27 207.572C475.092 197.132 467.657 192.758 455.601 192.898C450.423 192.898 444.34 193.885 441.413 195.159ZM462.584 214.765C467.992 222.524 464.612 243.264 456.953 249.191C448.166 255.964 440.848 249.758 440.848 235.364C440.848 215.758 454.25 202.919 462.584 214.765Z" fill="#737373"/>
<path d="M387.003 230.432C384.076 250.465 381.707 267.398 381.707 267.958C381.707 268.525 385.651 268.944 390.382 268.664L399.058 268.245L402.097 249.758C405.135 231.139 408.18 220.272 411.107 217.165C412.006 216.318 414.71 215.332 417.191 215.052C421.581 214.632 421.699 214.485 424.737 204.752L427.665 194.879L423.721 194.459C417.978 193.753 415.163 195.026 410.995 199.819L407.392 204.052L407.845 199.112L408.298 194.172H400.298H392.299L387.003 230.432Z" fill="#737373"/>
</svg>
